HIERARCHY
ROOT Bip001_Pelvis
{
  OFFSET 34.4345 95.6767 -26.8758
  CHANNELS 6 Xposition Yposition Zposition Zrotation Xrotation Yrotation
  JOINT Bip001_Spine
  {
    OFFSET 1.4188e-005 10.2191 -0.0116013
    CHANNELS 3 Zrotation Xrotation Yrotation
    JOINT Bip001_L_Thigh
    {
      OFFSET 11.0458 -10.2192 0.0116197
      CHANNELS 3 Zrotation Xrotation Yrotation
      JOINT Bip001_L_Calf
      {
        OFFSET -0.707118 -44.0221 0.360014
        CHANNELS 3 Zrotation Xrotation Yrotation
        JOINT Bip001_L_Foot
        {
          OFFSET -0.651902 -40.5938 -3.56146
          CHANNELS 3 Zrotation Xrotation Yrotation
          JOINT Bip001_L_Toe0
          {
            OFFSET 0.0530839 -10.2181 13.1504
            CHANNELS 3 Zrotation Xrotation Yrotation
            End Site
            {
              OFFSET -1.02532e-005 0 7.55606
            }
          }
        }
      }
    }
    JOINT Bip001_R_Thigh
    {
      OFFSET -11.0458 -10.2191 0.0115893
      CHANNELS 3 Zrotation Xrotation Yrotation
      JOINT Bip001_R_Calf
      {
        OFFSET 0.706994 -44.0221 0.35984
        CHANNELS 3 Zrotation Xrotation Yrotation
        JOINT Bip001_R_Foot
        {
          OFFSET 0.651786 -40.5938 -3.5613
          CHANNELS 3 Zrotation Xrotation Yrotation
          JOINT Bip001_R_Toe0
          {
            OFFSET -0.0531479 -10.2181 13.1504
            CHANNELS 3 Zrotation Xrotation Yrotation
            End Site
            {
              OFFSET -1.02894e-005 0 7.55606
            }
          }
        }
      }
    }
    JOINT Bip001_Spine1
    {
      OFFSET 1.87041e-005 14.5736 1.08638
      CHANNELS 3 Zrotation Xrotation Yrotation
      JOINT Bip001_Spine2
      {
        OFFSET 2.24614e-005 14.5058 -1.69078
        CHANNELS 3 Zrotation Xrotation Yrotation
        JOINT Bip001_Neck
        {
          OFFSET 2.20278e-005 15.3945 -0.489414
          CHANNELS 3 Zrotation Xrotation Yrotation
          JOINT Bip001_L_Clavicle
          {
            OFFSET 6.06036 -0.000579998 0.00836775
            CHANNELS 3 Zrotation Xrotation Yrotation
            JOINT Bip001_L_UpperArm
            {
              OFFSET 11.5509 -0.0600302 0.00193952
              CHANNELS 3 Zrotation Xrotation Yrotation
              JOINT Bip001_L_Forearm
              {
                OFFSET 25.9523 0.0806089 -2.15551
                CHANNELS 3 Zrotation Xrotation Yrotation
                JOINT Bip001_L_Hand
                {
                  OFFSET 32.2475 0.153767 1.63968
                  CHANNELS 3 Zrotation Xrotation Yrotation
                  JOINT Bip001_L_Finger0
                  {
                    OFFSET 6.04639 -2.20976 5.90322
                    CHANNELS 3 Zrotation Xrotation Yrotation
                    End Site
                    {
                      OFFSET 4.22375 -1.43895 0.606485
                    }
                  }
                  JOINT Bip001_L_Finger1
                  {
                    OFFSET 11.0826 -0.704819 -0.198153
                    CHANNELS 3 Zrotation Xrotation Yrotation
                    End Site
                    {
                      OFFSET 6.20027 -0.397518 -0.0787166
                    }
                  }
                }
              }
            }
          }
          JOINT Bip001_R_Clavicle
          {
            OFFSET -6.06037 -0.000563197 0.00835105
            CHANNELS 3 Zrotation Xrotation Yrotation
            JOINT Bip001_R_UpperArm
            {
              OFFSET -11.5509 -0.0599978 0.00190698
              CHANNELS 3 Zrotation Xrotation Yrotation
              JOINT Bip001_R_Forearm
              {
                OFFSET -25.9523 0.0806822 -2.15589
                CHANNELS 3 Zrotation Xrotation Yrotation
                JOINT Bip001_R_Hand
                {
                  OFFSET -32.2475 0.153859 1.63989
                  CHANNELS 3 Zrotation Xrotation Yrotation
                  JOINT Bip001_R_Finger0
                  {
                    OFFSET -6.04641 -2.20976 5.90317
                    CHANNELS 3 Zrotation Xrotation Yrotation
                    End Site
                    {
                      OFFSET -4.22376 -1.43895 0.60647
                    }
                  }
                  JOINT Bip001_R_Finger1
                  {
                    OFFSET -11.0826 -0.704794 -0.198182
                    CHANNELS 3 Zrotation Xrotation Yrotation
                    End Site
                    {
                      OFFSET -6.20028 -0.397504 -0.0787333
                    }
                  }
                }
              }
            }
          }
          JOINT Bip001_Head
          {
            OFFSET 1.09673e-005 11.2744 2.05948
            CHANNELS 3 Zrotation Xrotation Yrotation
            End Site
            {
              OFFSET 2.89576e-005 20.8808 -2.77728e-005
            }
          }
        }
      }
    }
  }
}
MOTION
Frames:	14
Frame Time:	0.04
34.4157 96.0674 -28.3694 0.396777 0.35989 4.01163 -0.390671 1.66448 -0.219662 4.52948 -2.89887 6.99313 -0.887336 6.00443 -9.04497 3.0936 -3.63255 -0.0408635 0.946931 -4.02355 -0.536719 -3.66969 -2.16148 -1.53472 -0.0275972 8.98212 0.0265368 -5.76573 -8.04243 0.227529 2.37143 -7.96066 2.36889 -0.775438 3.33158 -0.428233 -0.775439 3.33159 -0.428232 0.799222 -7.8195 -3.33682 -23.7008 8.30269 1.13132 -56.3074 39.4876 4.53125 13.5773 -5.45792 -23.3841 7.68426 0.911049 -3.00455 -1.59028e-015 0 -0 -3.18055e-015 3.18056e-015 3.18055e-015 13.2953 14.9122 27.6828 87.2108 -71.1775 77.7142 -37.2226 -10.7999 102.654 -22.0125 6.14652 2.54878 1.59028e-015 -3.97569e-016 1.49088e-016 1.93108e-032 -3.97569e-016 2.78299e-015 -0.0505228 -4.75552 -3.04285 
34.2642 96.06 -28.4225 0.186395 0.518875 4.0434 -0.361096 1.66039 -0.213393 4.86065 -3.25997 6.56886 -1.02719 6.32047 -8.73632 3.21003 -3.66365 -0.0432663 0.950626 -4.14606 -0.540336 -3.36443 -2.27326 -1.33112 -0.0558364 8.7955 -0.0127839 -5.83596 -7.9197 0.0263957 2.37113 -7.9468 2.3671 -0.716886 3.31751 -0.407123 -0.716827 3.31751 -0.408147 0.56373 -7.62124 -3.28778 -23.5156 8.1526 1.02991 -56.3391 39.5993 4.52537 13.4652 -5.73654 -23.2541 7.73159 1.21457 -2.97587 -3.53112e-031 6.36111e-015 3.18055e-015 0 0 -0 12.3173 14.538 28.682 90.7509 -69.601 82.9932 -36.6227 -11.0218 102.927 -22.5548 5.364 2.58296 5.51738e-033 7.95139e-016 -3.97569e-016 1.59028e-015 1.59028e-015 -1.59028e-015 0.178506 -5.09487 -3.09366 
34.2826 96.0605 -28.4736 0.137834 0.663153 3.99861 -0.367259 1.65976 -0.212732 4.79479 -3.42775 6.20441 -0.919152 6.26504 -8.48037 3.62013 -3.40604 -0.0607208 1.0432 -4.37318 -0.530895 -3.39607 -2.45735 -1.35906 0.0548268 8.78703 -0.0570791 -5.81446 -7.91975 0.101444 2.37253 -7.9282 2.38358 -0.72949 3.31757 -0.399503 -0.72949 3.31758 -0.399502 0.212938 -7.49831 -3.1633 -23.18 8.08467 0.973578 -56.3631 39.6385 4.48382 13.6207 -5.49365 -23.1771 7.67967 0.806436 -2.9095 -1.59028e-015 -3.18055e-015 -6.36111e-015 -1.59028e-015 0 -3.18055e-015 11.4361 14.2633 29.9061 92.8812 -68.0785 86.5352 -36.802 -11.4458 102.768 -22.4167 5.47953 2.62665 6.36111e-015 -1.59028e-015 -3.97569e-016 6.36111e-015 -3.18056e-015 -7.95139e-016 0.534826 -5.28929 -3.12091 
34.0883 96.0512 -28.4826 -0.155776 0.791228 4.1093 -0.310178 1.66458 -0.213181 5.27254 -3.80907 6.13091 -1.10375 6.70395 -8.57044 3.44201 -3.6693 -0.0457065 0.910622 -4.36977 -0.428565 -2.96312 -2.44225 -1.20822 -0.0354017 8.43714 -0.077234 -5.9012 -7.73922 -0.143011 2.37569 -7.97366 2.39651 -0.614664 3.33029 -0.422174 -0.614622 3.33026 -0.421463 -0.141452 -7.33951 -3.11927 -22.8585 7.97509 0.891398 -56.343 39.5701 4.47113 13.6399 -5.42926 -23.2921 7.51275 0.966641 -2.82357 4.77083e-015 -9.54166e-015 3.18055e-015 4.77083e-015 -9.54167e-015 -0 10.8649 14.0354 31.1192 92.9165 -66.6202 88.4369 -37.7939 -11.5367 102.104 -23.5341 5.57059 2.83053 0 1.59028e-015 -0 3.18055e-015 1.59028e-015 3.97569e-016 0.818473 -5.63744 -3.21034 
33.9204 96.0349 -28.468 -0.426345 0.825218 4.2063 -0.255793 1.67935 -0.209384 5.69556 -4.08082 5.97608 -1.29101 7.11605 -8.70145 3.65643 -3.76291 -0.0459625 0.856439 -4.54293 -0.330006 -2.56904 -2.36841 -1.25359 -0.157764 8.16695 -0.107799 -5.91663 -7.62278 -0.182395 2.37925 -7.99896 2.41906 -0.505547 3.36132 -0.410228 -0.505587 3.36131 -0.410939 -0.253103 -7.61463 -3.15651 -22.7961 8.23921 0.972706 -56.3296 39.5629 4.47565 13.6961 -5.22948 -23.2904 7.42935 0.808445 -2.92933 1.59028e-015 -6.36111e-015 3.18055e-015 1.59028e-015 -3.18056e-015 -0 9.95608 14.1882 32.2664 91.4498 -64.6479 88.9936 -39.8222 -11.387 100.712 -24.5408 5.64236 2.6704 -2.20695e-032 1.59028e-015 7.95139e-016 0 1.59028e-015 -0 0.807634 -5.28109 -3.26452 
33.8198 96.0244 -28.4693 -0.512447 0.899349 4.17292 -0.231047 1.66617 -0.167334 5.84795 -4.24955 5.95316 -1.38898 7.32577 -8.82011 4.24441 -3.59104 -0.0661431 0.971936 -4.80585 -0.320977 -2.43551 -2.43913 -1.22142 -0.157611 8.15128 -0.142594 -5.94589 -7.62634 -0.275947 2.37999 -7.9999 2.42723 -0.456114 3.33301 -0.327913 -0.456774 3.333 -0.328087 -0.709812 -7.60256 -3.19108 -22.5067 8.28994 0.86196 -56.2 39.663 4.56493 13.6045 -5.3029 -23.2323 7.2947 0.792588 -2.97365 -1.59028e-015 -9.54166e-015 -0 -3.18055e-015 -6.36111e-015 3.18055e-015 9.17904 13.9691 33.4953 88.725 -62.1607 88.4778 -41.1385 -10.4691 98.6151 -25.2195 6.08471 2.31758 3.18055e-015 3.18055e-015 3.18055e-015 3.18055e-015 1.59028e-015 3.97569e-015 1.21534 -5.10457 -3.47352 
33.7378 96.0238 -28.4841 -0.540102 1.05863 4.2973 -0.232093 1.63101 -0.135053 5.96139 -4.44874 5.77369 -1.43426 7.39369 -8.84985 3.81214 -3.7237 -0.0587842 0.772965 -4.67769 -0.187801 -2.3587 -2.56295 -1.21347 -0.139813 8.16554 -0.205802 -5.98415 -7.62573 -0.392814 2.3823 -8.0003 2.4132 -0.464562 3.26254 -0.263548 -0.463835 3.26255 -0.263548 -0.695275 -7.78482 -3.30749 -22.4617 8.40191 1.0746 -56.2234 39.9383 4.62654 13.5326 -5.59851 -23.2492 7.19132 1.1073 -2.96677 3.18055e-015 -6.36111e-015 -3.18055e-015 4.77083e-015 0 -3.18055e-015 7.77231 13.7743 34.3121 84.345 -58.5756 86.708 -41.3371 -8.58594 95.237 -25.6218 6.14205 2.32173 -3.18055e-015 -3.18055e-015 -0 -3.18055e-015 -3.18056e-015 -1.59028e-015 1.20628 -4.85206 -3.58934 
33.6106 96.0215 -28.4341 -0.616482 1.0343 4.51925 -0.229801 1.61951 -0.109649 6.15116 -4.5005 6.06768 -1.45787 7.55059 -9.39931 3.90664 -3.76587 -0.0500295 0.839697 -4.68187 -0.202586 -2.15125 -2.44044 -1.17537 -0.183214 8.08919 -0.216736 -6.07891 -7.58012 -0.660252 2.38525 -7.99365 2.40172 -0.45455 3.23946 -0.214798 -0.45542 3.23947 -0.213481 -0.534156 -7.9188 -3.46394 -22.5238 8.46526 1.23422 -56.3225 39.9515 4.83204 13.6349 -5.55123 -23.3554 7.16954 1.17978 -2.97645 -4.77083e-015 9.54166e-015 3.18055e-015 -4.77083e-015 9.54167e-015 3.18055e-015 6.34754 13.5884 35.3646 75.9814 -54.808 82.8259 -41.7215 -6.24986 88.8452 -23.9777 5.93564 3.13807 1.59028e-015 3.18055e-015 1.59028e-015 4.77083e-015 0 7.95139e-016 1.15987 -4.58132 -3.69013 
33.4824 96.033 -28.4086 -0.754955 0.98687 4.80598 -0.201735 1.64262 -0.117022 6.41397 -4.59105 5.90471 -1.51316 7.68109 -9.50656 3.09357 -4.07338 -0.0270508 0.531022 -4.33775 0.0631371 -1.90832 -2.24351 -1.07451 -0.197877 7.80402 -0.293448 -6.15634 -7.417 -0.951415 2.36481 -7.93355 2.39008 -0.400561 3.28564 -0.227834 -0.400439 3.28564 -0.228091 -0.316173 -7.84632 -3.5037 -22.5878 8.35075 1.29144 -56.3266 39.8944 4.74466 13.7141 -5.61398 -23.3615 7.20584 1.10743 -2.96042 -3.18055e-015 6.36111e-015 6.36111e-015 -3.18055e-015 0 3.18055e-015 4.34021 12.9229 36.2301 59.0761 -49.4505 73.281 -44.229 -7.99889 76.3901 -24.5524 7.09841 3.93042 -8.82781e-032 6.36111e-015 7.95139e-016 -1.59028e-015 3.18056e-015 -0 1.12385 -4.74014 -3.67757 
33.3562 96.0389 -28.4287 -0.824934 1.11904 5.18603 -0.187409 1.62641 -0.132163 6.5323 -4.85513 5.74198 -1.49655 7.75943 -9.5774 2.99251 -4.11719 -0.0242807 0.544737 -4.25574 0.039733 -1.75837 -2.268 -0.872382 -0.159271 7.67488 -0.377083 -6.28558 -7.30857 -1.37874 2.34486 -7.89255 2.39413 -0.364542 3.25324 -0.259125 -0.364619 3.25324 -0.260125 -0.147809 -7.78359 -3.62579 -22.8315 8.25407 1.31315 -56.0187 39.7437 4.76493 13.6859 -5.73812 -23.6403 7.31341 1.23674 -2.86644 -1.59028e-015 0 -0 -0 0 3.18055e-015 3.50983 12.716 37.3631 58.0154 -46.6238 77.2374 -49.5363 -9.56842 67.9303 -29.5352 9.33688 3.76353 -4.77083e-015 3.18055e-015 -0 -1.59028e-015 0 1.59028e-015 1.09008 -4.68464 -3.74618 
33.297 96.0384 -28.4573 -0.829867 1.22994 5.55574 -0.187039 1.57947 -0.103818 6.48386 -5.06518 5.48213 -1.39484 7.79694 -9.68625 3.38042 -3.85441 -0.0374601 0.757686 -4.49051 -0.144022 -1.73382 -2.35001 -0.873174 -0.0751327 7.78221 -0.374561 -6.4125 -7.29686 -1.7178 2.32334 -7.83625 2.38209 -0.379943 3.15927 -0.202735 -0.379886 3.15928 -0.202555 0.622051 -7.60445 -3.93665 -23.2169 8.03429 1.05876 -56.2191 39.7026 4.81197 13.54 -5.76678 -23.6249 7.63764 1.26932 -2.79487 1.59028e-015 0 -3.18055e-015 1.59028e-015 -3.18056e-015 -3.18055e-015 2.47881 12.4324 37.7445 62.116 -47.7585 82.0398 -48.9099 -8.4703 66.947 -26.6845 7.43688 5.08522 -1.59028e-015 -3.18055e-015 -7.95139e-016 -3.18055e-015 -6.36111e-015 7.95139e-016 0.379637 -4.45553 -3.74549 
33.3362 96.0562 -28.416 -0.559808 1.08703 5.68702 -0.185959 1.59217 -0.113779 6.10456 -4.77467 6.3073 -1.09454 7.52158 -10.4233 3.04316 -3.87735 -0.0342782 0.776712 -4.29346 -0.22459 -2.06319 -2.30304 -1.04216 -0.0138815 8.11122 -0.365515 -6.37128 -7.47098 -1.65784 2.29171 -7.71946 2.32777 -0.369542 3.18469 -0.222512 -0.369541 3.18469 -0.222512 1.27427 -7.11433 -4.10831 -23.7661 7.41215 1.19179 -56.5055 40.0276 4.47247 13.7283 -5.62129 -23.1608 7.427 1.26298 -2.90426 3.53112e-031 6.36111e-015 -3.18055e-015 1.59028e-015 9.54167e-015 -0 1.14082 11.4693 36.8537 58.712 -47.9527 79.6782 -46.2288 -8.3797 64.9722 -25.0973 9.08721 4.66806 -1.59028e-015 -3.18055e-015 -7.95139e-016 -8.82782e-032 -6.36111e-015 -7.95139e-016 -0.288318 -5.05875 -3.64052 
33.3614 96.0858 -28.414 -0.450501 0.953295 5.56971 -0.176072 1.61094 -0.111493 5.9231 -4.57712 5.74759 -0.968023 7.38207 -9.44405 2.02256 -4.25309 -0.00705168 0.59113 -3.72137 -0.161425 -2.17985 -2.19817 -0.927017 -0.0258232 8.10781 -0.312452 -6.33881 -7.41 -1.66863 2.26855 -7.65478 2.32874 -0.349024 3.22461 -0.238891 -0.348596 3.22462 -0.239133 1.98815 -6.52963 -4.24098 -24.4763 6.72265 1.2067 -56.6309 39.7129 4.76826 14.0031 -5.26372 -23.7866 7.15137 1.25653 -2.93588 4.77083e-015 -3.18055e-015 -3.18055e-015 4.77083e-015 3.18056e-015 -3.18055e-015 -0.130268 10.4732 35.9443 48.6135 -47.699 71.9838 -43.8678 -10.271 60.6876 -18.5825 10.0213 3.75132 1.59028e-015 -3.18055e-015 -5.96354e-016 7.95139e-016 0 -1.78906e-015 -0.928297 -5.8669 -3.49314 
33.3239 96.0825 -28.4809 -0.622268 0.864654 5.24608 -0.139908 1.62409 -0.115112 6.16294 -4.72328 5.77299 -1.05248 7.87484 -9.00441 1.88078 -4.59191 -0.00258047 0.587476 -3.58026 -0.209167 -2.00444 -2.21015 -0.694263 -0.0587097 8.04018 -0.244737 -6.33054 -7.29781 -1.62455 2.26209 -7.6233 2.26763 -0.27847 3.2484 -0.225903 -0.277903 3.24839 -0.225985 2.30558 -6.42528 -4.32769 -24.9171 6.5255 1.37314 -56.5921 39.3714 4.97947 13.9785 -5.25818 -24.2652 7.55243 1.10554 -3.23379 3.18055e-015 -3.18055e-015 3.18055e-015 6.36111e-015 -3.18056e-015 3.18055e-015 -0.158419 10.3919 35.4974 41.617 -46.6862 65.5625 -42.171 -10.7307 58.6987 -13.705 10.7404 3.54434 -7.95139e-016 -3.18055e-015 5.96354e-016 -1.59028e-015 -6.36111e-015 1.59028e-015 -1.16561 -6.02091 -3.45749 
